name rise44.8762peak52.3436fall86.788.mot
datacolumns 19
datarows 21
range 14.84660800000000 14.87993800000000
endheader
time	ground_force1_vx	ground_force1_vy	ground_force1_vz	ground_force1_px	ground_force1_py	ground_force1_pz	ground_force2_vx	ground_force2_vy	ground_force2_vz	ground_force2_px	ground_force2_py	ground_force2_pz	ground_torque1_x	ground_torque1_y	ground_torque1_z	ground_torque2_x	ground_torque2_y	ground_torque2_z	
14.84660800000000	64.48924000000000	755.82977700000004	60.68070900000000	0.27635100000000	0.00000000000000	0.12053800000000	0.00000000000000	0.00000000000000	0.00000000000000	0.00000000000000	0.00000000000000	0.00000000000000	0.00000000000000	18.40930000000000	0.00000000000000	0.00000000000000	0.00000000000000	0.00000000000000	
14.84827900000000	63.63682100000000	758.07216800000003	60.70579600000000	0.27522300000000	0.00000000000000	0.12055600000000	0.00000000000000	0.00000000000000	0.00000000000000	0.00000000000000	0.00000000000000	0.00000000000000	0.00000000000000	18.45646200000000	0.00000000000000	0.00000000000000	0.00000000000000	0.00000000000000	
14.84994600000000	62.79239500000000	760.21601099999998	60.73306000000000	0.27411400000000	0.00000000000000	0.12057700000000	0.00000000000000	0.00000000000000	0.00000000000000	0.00000000000000	0.00000000000000	0.00000000000000	0.00000000000000	18.50436000000000	0.00000000000000	0.00000000000000	0.00000000000000	0.00000000000000	
14.85161100000000	61.95662300000000	762.25963899999999	60.76258300000000	0.27302100000000	0.00000000000000	0.12059800000000	0.00000000000000	0.00000000000000	0.00000000000000	0.00000000000000	0.00000000000000	0.00000000000000	0.00000000000000	18.55290600000000	0.00000000000000	0.00000000000000	0.00000000000000	0.00000000000000	
14.85327700000000	61.13006600000000	764.20138799999995	60.79435900000000	0.27194400000000	0.00000000000000	0.12062100000000	0.00000000000000	0.00000000000000	0.00000000000000	0.00000000000000	0.00000000000000	0.00000000000000	0.00000000000000	18.60197100000000	0.00000000000000	0.00000000000000	0.00000000000000	0.00000000000000	
14.85494500000000	60.31318600000000	766.03961100000004	60.82829700000000	0.27088100000000	0.00000000000000	0.12064600000000	0.00000000000000	0.00000000000000	0.00000000000000	0.00000000000000	0.00000000000000	0.00000000000000	0.00000000000000	18.65139600000000	0.00000000000000	0.00000000000000	0.00000000000000	0.00000000000000	
14.85661000000000	59.50635300000000	767.77269699999999	60.86422400000000	0.26983100000000	0.00000000000000	0.12067200000000	0.00000000000000	0.00000000000000	0.00000000000000	0.00000000000000	0.00000000000000	0.00000000000000	0.00000000000000	18.70098900000000	0.00000000000000	0.00000000000000	0.00000000000000	0.00000000000000	
14.85827500000000	58.70984500000000	769.39908100000002	60.90189500000000	0.26879200000000	0.00000000000000	0.12070000000000	0.00000000000000	0.00000000000000	0.00000000000000	0.00000000000000	0.00000000000000	0.00000000000000	0.00000000000000	18.75052900000000	0.00000000000000	0.00000000000000	0.00000000000000	0.00000000000000	
14.85993800000000	57.92385300000000	770.91726600000004	60.94099200000000	0.26776300000000	0.00000000000000	0.12072900000000	0.00000000000000	0.00000000000000	0.00000000000000	0.00000000000000	0.00000000000000	0.00000000000000	0.00000000000000	18.79977100000000	0.00000000000000	0.00000000000000	0.00000000000000	0.00000000000000	
14.86160500000000	57.14848500000000	772.32583099999999	60.98113500000000	0.26674300000000	0.00000000000000	0.12076000000000	0.00000000000000	0.00000000000000	0.00000000000000	0.00000000000000	0.00000000000000	0.00000000000000	0.00000000000000	18.84844600000000	0.00000000000000	0.00000000000000	0.00000000000000	0.00000000000000	
14.86327500000000	56.38377400000000	773.62345300000004	61.02188300000000	0.26573000000000	0.00000000000000	0.12079200000000	0.00000000000000	0.00000000000000	0.00000000000000	0.00000000000000	0.00000000000000	0.00000000000000	0.00000000000000	18.89626700000000	0.00000000000000	0.00000000000000	0.00000000000000	0.00000000000000	
14.86494500000000	55.62967800000000	774.80891299999996	61.06274400000000	0.26472200000000	0.00000000000000	0.12082600000000	0.00000000000000	0.00000000000000	0.00000000000000	0.00000000000000	0.00000000000000	0.00000000000000	0.00000000000000	18.94292900000000	0.00000000000000	0.00000000000000	0.00000000000000	0.00000000000000	
14.86661000000000	54.88608600000000	775.88111800000001	61.10317900000000	0.26371800000000	0.00000000000000	0.12086100000000	0.00000000000000	0.00000000000000	0.00000000000000	0.00000000000000	0.00000000000000	0.00000000000000	0.00000000000000	18.98811500000000	0.00000000000000	0.00000000000000	0.00000000000000	0.00000000000000	
14.86827200000000	54.15282500000000	776.83910700000001	61.14261000000000	0.26271600000000	0.00000000000000	0.12089800000000	0.00000000000000	0.00000000000000	0.00000000000000	0.00000000000000	0.00000000000000	0.00000000000000	0.00000000000000	19.03149700000000	0.00000000000000	0.00000000000000	0.00000000000000	0.00000000000000	
14.86994600000000	53.42966700000000	777.68206799999996	61.18042500000000	0.26171500000000	0.00000000000000	0.12093600000000	0.00000000000000	0.00000000000000	0.00000000000000	0.00000000000000	0.00000000000000	0.00000000000000	0.00000000000000	19.07274200000000	0.00000000000000	0.00000000000000	0.00000000000000	0.00000000000000	
14.87161100000000	52.71632800000000	778.40934700000003	61.21598500000000	0.26071300000000	0.00000000000000	0.12097600000000	0.00000000000000	0.00000000000000	0.00000000000000	0.00000000000000	0.00000000000000	0.00000000000000	0.00000000000000	19.11151300000000	0.00000000000000	0.00000000000000	0.00000000000000	0.00000000000000	
14.87327600000000	52.01248000000000	779.02046199999995	61.24863200000000	0.25970900000000	0.00000000000000	0.12101600000000	0.00000000000000	0.00000000000000	0.00000000000000	0.00000000000000	0.00000000000000	0.00000000000000	0.00000000000000	19.14747000000000	0.00000000000000	0.00000000000000	0.00000000000000	0.00000000000000	
14.87494400000000	51.31775200000000	779.51510900000005	61.27769300000000	0.25870100000000	0.00000000000000	0.12105800000000	0.00000000000000	0.00000000000000	0.00000000000000	0.00000000000000	0.00000000000000	0.00000000000000	0.00000000000000	19.18028000000000	0.00000000000000	0.00000000000000	0.00000000000000	0.00000000000000	
14.87661200000000	50.63174000000000	779.89317200000005	61.30248900000000	0.25768800000000	0.00000000000000	0.12110100000000	0.00000000000000	0.00000000000000	0.00000000000000	0.00000000000000	0.00000000000000	0.00000000000000	0.00000000000000	19.20961200000000	0.00000000000000	0.00000000000000	0.00000000000000	0.00000000000000	
14.87827300000000	49.95400800000000	780.15473599999996	61.32234100000000	0.25666900000000	0.00000000000000	0.12114500000000	0.00000000000000	0.00000000000000	0.00000000000000	0.00000000000000	0.00000000000000	0.00000000000000	0.00000000000000	19.23514600000000	0.00000000000000	0.00000000000000	0.00000000000000	0.00000000000000	
14.87993800000000	49.28409500000000	780.30008599999996	61.33657500000000	0.25564200000000	0.00000000000000	0.12119000000000	0.00000000000000	0.00000000000000	0.00000000000000	0.00000000000000	0.00000000000000	0.00000000000000	0.00000000000000	19.25657100000000	0.00000000000000	0.00000000000000	0.00000000000000	0.00000000000000	
